<mxfile host="app.diagrams.net" modified="2023-11-21T11:28:23.810Z" agent="Mozilla/5.0 (Windows NT 10.0; Win64; x64) AppleWebKit/537.36 (KHTML, like Gecko) Chrome/118.0.0.0 Safari/537.36" etag="bWZERRbWQvOQOq9eHKUS" version="22.1.3" type="github">
  <diagram name="Page-1" id="10a91c8b-09ff-31b1-d368-03940ed4cc9e">
    <mxGraphModel dx="1434" dy="746" grid="1" gridSize="10" guides="1" tooltips="1" connect="1" arrows="1" fold="1" page="1" pageScale="1" pageWidth="1100" pageHeight="850" background="none" math="0" shadow="0">
      <root>
        <mxCell id="0" />
        <mxCell id="1" parent="0" />
        <mxCell id="ze9fQ8IfpADz6VAi6AzS-8" value="" style="edgeStyle=orthogonalEdgeStyle;rounded=0;orthogonalLoop=1;jettySize=auto;html=1;strokeWidth=2;" edge="1" parent="1" source="62893188c0fa7362-1" target="ze9fQ8IfpADz6VAi6AzS-7">
          <mxGeometry relative="1" as="geometry" />
        </mxCell>
        <mxCell id="62893188c0fa7362-1" value="Get promoter sequence" style="whiteSpace=wrap;html=1;rounded=1;shadow=0;labelBackgroundColor=none;strokeWidth=2;fontFamily=Verdana;fontSize=12;align=center;strokeColor=#f48925;" parent="1" vertex="1">
          <mxGeometry x="240" y="280" width="200" height="40" as="geometry" />
        </mxCell>
        <mxCell id="ze9fQ8IfpADz6VAi6AzS-3" value="" style="edgeStyle=orthogonalEdgeStyle;rounded=0;orthogonalLoop=1;jettySize=auto;html=1;strokeWidth=2;" edge="1" parent="1" source="62893188c0fa7362-2" target="ze9fQ8IfpADz6VAi6AzS-1">
          <mxGeometry relative="1" as="geometry" />
        </mxCell>
        <mxCell id="62893188c0fa7362-2" value="sc-ATAC peak" style="whiteSpace=wrap;html=1;rounded=1;shadow=0;labelBackgroundColor=none;strokeWidth=2;fontFamily=Verdana;fontSize=12;align=center;strokeColor=#de1717;" parent="1" vertex="1">
          <mxGeometry x="200" y="80" width="120" height="40" as="geometry" />
        </mxCell>
        <mxCell id="ze9fQ8IfpADz6VAi6AzS-4" value="" style="edgeStyle=orthogonalEdgeStyle;rounded=0;orthogonalLoop=1;jettySize=auto;html=1;strokeWidth=2;endSize=6;" edge="1" parent="1" source="62893188c0fa7362-3" target="ze9fQ8IfpADz6VAi6AzS-1">
          <mxGeometry relative="1" as="geometry" />
        </mxCell>
        <mxCell id="62893188c0fa7362-3" value="&lt;span&gt;bulk-ATAC&amp;nbsp;&lt;/span&gt;peak" style="whiteSpace=wrap;html=1;rounded=1;shadow=0;labelBackgroundColor=none;strokeWidth=2;fontFamily=Verdana;fontSize=12;align=center;glass=0;strokeColor=#de1717;" parent="1" vertex="1">
          <mxGeometry x="360" y="80" width="120" height="40" as="geometry" />
        </mxCell>
        <mxCell id="ze9fQ8IfpADz6VAi6AzS-5" value="" style="edgeStyle=orthogonalEdgeStyle;rounded=0;orthogonalLoop=1;jettySize=auto;html=1;strokeWidth=2;" edge="1" parent="1" source="ze9fQ8IfpADz6VAi6AzS-1" target="ze9fQ8IfpADz6VAi6AzS-2">
          <mxGeometry relative="1" as="geometry" />
        </mxCell>
        <mxCell id="ze9fQ8IfpADz6VAi6AzS-1" value="Annotate peak" style="whiteSpace=wrap;html=1;rounded=1;shadow=0;labelBackgroundColor=none;strokeWidth=2;fontFamily=Verdana;fontSize=12;align=center;glass=0;strokeColor=#f48925;" vertex="1" parent="1">
          <mxGeometry x="240" y="160" width="200" height="40" as="geometry" />
        </mxCell>
        <mxCell id="ze9fQ8IfpADz6VAi6AzS-6" value="" style="edgeStyle=orthogonalEdgeStyle;rounded=0;orthogonalLoop=1;jettySize=auto;html=1;strokeWidth=2;" edge="1" parent="1" source="ze9fQ8IfpADz6VAi6AzS-2" target="62893188c0fa7362-1">
          <mxGeometry relative="1" as="geometry" />
        </mxCell>
        <mxCell id="ze9fQ8IfpADz6VAi6AzS-2" value="Define promoter peak" style="whiteSpace=wrap;html=1;rounded=1;shadow=0;labelBackgroundColor=none;strokeWidth=2;fontFamily=Verdana;fontSize=12;align=center;glass=0;strokeColor=#f48925;" vertex="1" parent="1">
          <mxGeometry x="240" y="220" width="200" height="40" as="geometry" />
        </mxCell>
        <mxCell id="ze9fQ8IfpADz6VAi6AzS-10" value="" style="edgeStyle=orthogonalEdgeStyle;rounded=0;orthogonalLoop=1;jettySize=auto;html=1;strokeWidth=2;" edge="1" parent="1" source="ze9fQ8IfpADz6VAi6AzS-7" target="ze9fQ8IfpADz6VAi6AzS-9">
          <mxGeometry relative="1" as="geometry" />
        </mxCell>
        <mxCell id="ze9fQ8IfpADz6VAi6AzS-7" value="TOBIAS TFBScan" style="whiteSpace=wrap;html=1;rounded=1;shadow=0;labelBackgroundColor=none;strokeWidth=2;fontFamily=Verdana;fontSize=12;align=center;strokeColor=#2cb54e;" vertex="1" parent="1">
          <mxGeometry x="240" y="340" width="200" height="40" as="geometry" />
        </mxCell>
        <mxCell id="ze9fQ8IfpADz6VAi6AzS-12" value="" style="edgeStyle=orthogonalEdgeStyle;rounded=0;orthogonalLoop=1;jettySize=auto;html=1;strokeWidth=2;" edge="1" parent="1" source="ze9fQ8IfpADz6VAi6AzS-9" target="ze9fQ8IfpADz6VAi6AzS-11">
          <mxGeometry relative="1" as="geometry" />
        </mxCell>
        <mxCell id="ze9fQ8IfpADz6VAi6AzS-9" value="Compare&amp;nbsp;TF statistical index" style="whiteSpace=wrap;html=1;rounded=1;shadow=0;labelBackgroundColor=none;strokeWidth=2;fontFamily=Verdana;fontSize=12;align=center;strokeColor=#2cb54e;" vertex="1" parent="1">
          <mxGeometry x="240" y="400" width="200" height="40" as="geometry" />
        </mxCell>
        <mxCell id="ze9fQ8IfpADz6VAi6AzS-11" value="Filter TF candidates" style="whiteSpace=wrap;html=1;rounded=1;shadow=0;labelBackgroundColor=none;strokeWidth=2;fontFamily=Verdana;fontSize=12;align=center;strokeColor=#2cb54e;" vertex="1" parent="1">
          <mxGeometry x="240" y="460" width="200" height="40" as="geometry" />
        </mxCell>
      </root>
    </mxGraphModel>
  </diagram>
</mxfile>
